<svg xmlns="http://www.w3.org/2000/svg" viewBox="0 0 64 64" role="img" aria-label="The Map Game icon">
  <defs>
    <radialGradient id="sea" cx="50%" cy="35%" r="70%">
      <stop offset="0" stop-color="#e5fbff"/>
      <stop offset="1" stop-color="#48a9d6"/>
    </radialGradient>
  </defs>
  <circle cx="32" cy="32" r="30" fill="url(#sea)" stroke="#172033" stroke-width="3"/>
  <path d="M18 22c5-6 14-7 20-3 2 2 2 5-1 6l-5 2c-3 1-4 5-2 8 2 4 0 8-5 8-6 0-12-8-12-14 0-3 2-5 5-7Z" fill="#55b86a"/>
  <path d="M39 35c5-2 11 1 12 6 1 4-3 8-8 8-5 0-9-4-8-8 0-3 2-5 4-6Z" fill="#f5b849"/>
  <circle cx="32" cy="32" r="30" fill="none" stroke="rgba(255,255,255,.55)" stroke-width="2"/>
</svg>
