<svg xmlns="http://www.w3.org/2000/svg" viewBox="0 0 64 64" role="img" aria-label="The Map Game">
  <defs>
    <linearGradient id="sea" x1="0" y1="0" x2="1" y2="1">
      <stop offset="0" stop-color="#bfefff"/>
      <stop offset="1" stop-color="#5fb7db"/>
    </linearGradient>
    <linearGradient id="land" x1="0" y1="0" x2="1" y2="1">
      <stop offset="0" stop-color="#9bd27a"/>
      <stop offset="1" stop-color="#3f9868"/>
    </linearGradient>
  </defs>
  <circle cx="32" cy="32" r="29" fill="url(#sea)" stroke="#172033" stroke-width="3"/>
  <path d="M15 25c5-8 16-11 22-5 3 3 0 8-5 8-4 0-4 4-8 5-5 1-10-2-9-8z" fill="url(#land)"/>
  <path d="M39 35c8-4 14 1 12 8-2 5-10 9-16 6-4-2-1-10 4-14z" fill="url(#land)"/>
  <path d="M27 39c3 1 5 5 4 8-2 4-8 2-9-2-1-3 1-6 5-6z" fill="url(#land)"/>
</svg>
